<svg 
 xmlns="http://www.w3.org/2000/svg"
 xmlns:xlink="http://www.w3.org/1999/xlink"
 width="73px" height="195px">
<defs>
<filter id="Filter_0">
    <feOffset in="SourceAlpha" dx="0" dy="3" />
    <feGaussianBlur result="blurOut" stdDeviation="1.732" />
    <feFlood flood-color="rgb(0, 0, 0)" result="floodOut" />
    <feComposite operator="out" in="floodOut" in2="blurOut" result="compOut" />
    <feComposite operator="in" in="compOut" in2="SourceAlpha" />
    <feComponentTransfer><feFuncA type="linear" slope="1"/></feComponentTransfer>
    <feBlend mode="multiply" in2="SourceGraphic" />
</filter>
<linearGradient id="PSgrad_0" x1="0%" x2="0%" y1="0%" y2="100%">
  <stop offset="0%" stop-color="rgb(6,4,27)" stop-opacity="1" />
  <stop offset="100%" stop-color="rgb(104,16,140)" stop-opacity="1" />
</linearGradient>
<linearGradient id="PSgrad_1" x1="0%" x2="100%" y1="0%" y2="0%">
  <stop offset="0%" stop-color="rgb(104,16,140)" stop-opacity="1" />
  <stop offset="50%" stop-color="rgb(6,4,27)" stop-opacity="1" />
  <stop offset="100%" stop-color="rgb(104,16,140)" stop-opacity="1" />
</linearGradient>
<filter id="Filter_1">
    <feOffset in="SourceAlpha" dx="0" dy="3" />
    <feGaussianBlur result="blurOut" stdDeviation="4" />
    <feFlood flood-color="rgb(0, 0, 0)" result="floodOut" />
    <feComposite operator="out" in="floodOut" in2="blurOut" result="compOut" />
    <feComposite operator="in" in="compOut" in2="SourceAlpha" />
    <feComponentTransfer><feFuncA type="linear" slope="1"/></feComponentTransfer>
    <feBlend mode="multiply" in2="SourceGraphic" />
</filter>

</defs>
<g filter="url(#Filter_0)">
<path fill-rule="evenodd"  fill="rgb(255, 255, 255)"
 d="M33.000,-0.000 L40.000,-0.000 L40.000,-0.000 L40.000,147.000 L40.000,147.000 L33.000,147.000 L33.000,147.000 L33.000,-0.000 L33.000,-0.000 Z"/>
</g>
<path fill="url(#PSgrad_0)"
 d="M33.000,-0.000 L40.000,-0.000 L40.000,-0.000 L40.000,147.000 L40.000,147.000 L33.000,147.000 L33.000,147.000 L33.000,-0.000 L33.000,-0.000 Z"/>
<path fill-rule="evenodd"  fill="rgb(255, 255, 255)"
 d="M19.014,153.350 C19.014,147.077 26.842,141.993 36.500,141.993 C46.157,141.993 53.986,147.077 53.986,153.350 C53.986,159.622 53.986,160.007 53.986,160.007 L19.014,160.007 C19.014,160.007 19.014,159.622 19.014,153.350 Z"/>
<path fill="url(#PSgrad_1)"
 d="M19.014,153.350 C19.014,147.077 26.842,141.993 36.500,141.993 C46.157,141.993 53.986,147.077 53.986,153.350 C53.986,159.622 53.986,160.007 53.986,160.007 L19.014,160.007 C19.014,160.007 19.014,159.622 19.014,153.350 Z"/>
<path fill-rule="evenodd"  fill="rgb(255, 255, 255)"
 d="M5.368,172.127 C5.368,162.350 19.306,154.424 36.500,154.424 C53.693,154.424 67.631,162.350 67.631,172.127 C67.631,181.904 67.631,182.504 67.631,182.504 L5.368,182.504 C5.368,182.504 5.368,181.904 5.368,172.127 Z"/>
<path fill="url(#PSgrad_1)"
 d="M5.368,172.127 C5.368,162.350 19.306,154.424 36.500,154.424 C53.693,154.424 67.631,162.350 67.631,172.127 C67.631,181.904 67.631,182.504 67.631,182.504 L5.368,182.504 C5.368,182.504 5.368,181.904 5.368,172.127 Z"/>
<g filter="url(#Filter_1)">
<path fill-rule="evenodd"  fill="rgb(40, 40, 40)"
 d="M36.500,173.957 C53.693,173.957 67.631,177.511 67.631,181.894 C67.631,186.276 53.693,189.829 36.500,189.829 C19.306,189.829 5.368,186.276 5.368,181.894 C5.368,177.511 19.306,173.957 36.500,173.957 Z"/>
</g>
</svg>