<svg 
 xmlns="http://www.w3.org/2000/svg"
 xmlns:xlink="http://www.w3.org/1999/xlink"
 width="63px" height="190px">
<defs>
<filter id="Filter_0">
    <feOffset in="SourceAlpha" dx="0" dy="3" />
    <feGaussianBlur result="blurOut" stdDeviation="1.732" />
    <feFlood flood-color="rgb(0, 0, 0)" result="floodOut" />
    <feComposite operator="out" in="floodOut" in2="blurOut" result="compOut" />
    <feComposite operator="in" in="compOut" in2="SourceAlpha" />
    <feComponentTransfer><feFuncA type="linear" slope="1"/></feComponentTransfer>
    <feBlend mode="multiply" in2="SourceGraphic" />
</filter>
<linearGradient id="PSgrad_0" x1="0%" x2="0%" y1="0%" y2="100%">
  <stop offset="0%" stop-color="rgb(6,4,27)" stop-opacity="1" />
  <stop offset="100%" stop-color="rgb(104,16,140)" stop-opacity="1" />
</linearGradient>
<linearGradient id="PSgrad_1" x1="0%" x2="100%" y1="0%" y2="0%">
  <stop offset="0%" stop-color="rgb(104,16,140)" stop-opacity="1" />
  <stop offset="50%" stop-color="rgb(6,4,27)" stop-opacity="1" />
  <stop offset="100%" stop-color="rgb(104,16,140)" stop-opacity="1" />
</linearGradient>

</defs>
<g filter="url(#Filter_0)">
<path fill-rule="evenodd"  fill="rgb(255, 255, 255)"
 d="M28.000,-0.000 L35.000,-0.000 L35.000,-0.000 L35.000,147.000 L35.000,147.000 L28.000,147.000 L28.000,147.000 L28.000,-0.000 L28.000,-0.000 Z"/>
</g>
<path fill="url(#PSgrad_0)"
 d="M28.000,-0.000 L35.000,-0.000 L35.000,-0.000 L35.000,147.000 L35.000,147.000 L28.000,147.000 L28.000,147.000 L28.000,-0.000 L28.000,-0.000 Z"/>
<path fill-rule="evenodd"  fill="rgb(255, 255, 255)"
 d="M14.014,153.350 C14.014,147.077 21.843,141.993 31.500,141.993 C41.157,141.993 48.985,147.077 48.985,153.350 C48.985,159.622 48.985,160.007 48.985,160.007 L14.014,160.007 C14.014,160.007 14.014,159.622 14.014,153.350 Z"/>
<path fill="url(#PSgrad_1)"
 d="M14.014,153.350 C14.014,147.077 21.843,141.993 31.500,141.993 C41.157,141.993 48.985,147.077 48.985,153.350 C48.985,159.622 48.985,160.007 48.985,160.007 L14.014,160.007 C14.014,160.007 14.014,159.622 14.014,153.350 Z"/>
<path fill-rule="evenodd"  fill="rgb(255, 255, 255)"
 d="M0.368,172.127 C0.368,162.350 14.306,154.424 31.500,154.424 C48.693,154.424 62.631,162.350 62.631,172.127 C62.631,181.904 62.631,182.504 62.631,182.504 L0.368,182.504 C0.368,182.504 0.368,181.904 0.368,172.127 Z"/>
<path fill="url(#PSgrad_1)"
 d="M0.368,172.127 C0.368,162.350 14.306,154.424 31.500,154.424 C48.693,154.424 62.631,162.350 62.631,172.127 C62.631,181.904 62.631,182.504 62.631,182.504 L0.368,182.504 C0.368,182.504 0.368,181.904 0.368,172.127 Z"/>
<path fill-rule="evenodd"  fill="rgb(255, 255, 255)"
 d="M31.500,173.957 C48.693,173.957 62.631,177.511 62.631,181.894 C62.631,186.276 48.693,189.829 31.500,189.829 C14.306,189.829 0.368,186.276 0.368,181.894 C0.368,177.511 14.306,173.957 31.500,173.957 Z"/>
</svg>